<svg width="24" height="24" viewBox="0 0 24 24" fill="none" xmlns="http://www.w3.org/2000/svg">
<circle cx="12" cy="12" r="12" fill="#C1EEE7"/>
<path fill-rule="evenodd" clip-rule="evenodd" d="M12.8824 16.1176C12.8824 16.605 12.4873 17 12 17C11.5127 17 11.1176 16.605 11.1176 16.1176L11.1176 12.8824H7.88235C7.39504 12.8824 7 12.4873 7 12C7 11.5127 7.39504 11.1176 7.88235 11.1176H11.1176V7.88235C11.1176 7.39504 11.5127 7 12 7C12.4873 7 12.8824 7.39504 12.8824 7.88235V11.1176H16.1176C16.605 11.1176 17 11.5127 17 12C17 12.4873 16.605 12.8824 16.1176 12.8824H12.8824V16.1176Z" fill="#00A283"/>
</svg>
