<svg width="24" height="24" viewBox="0 0 24 24" fill="none" xmlns="http://www.w3.org/2000/svg">
<circle cx="12" cy="12" r="12" fill="#C1EEE7"/>
<path d="M15.75 9C15.75 10.1046 14.8794 11 13.8056 11C13.3393 11 12.9113 10.8312 12.5763 10.5497L10.7732 11.8187C10.8481 12.0314 10.8889 12.2608 10.8889 12.5C10.8889 12.6289 10.877 12.755 10.8544 12.8772L12.3922 13.6264C12.7467 13.2407 13.2488 13 13.8056 13C14.8794 13 15.75 13.8954 15.75 15C15.75 16.1046 14.8794 17 13.8056 17C12.7317 17 11.8611 16.1046 11.8611 15C11.8611 14.8287 11.8821 14.6623 11.9215 14.5036L10.4379 13.7808C10.0812 14.2203 9.54459 14.5 8.94444 14.5C7.87056 14.5 7 13.6046 7 12.5C7 11.3954 7.87056 10.5 8.94444 10.5C9.43427 10.5 9.8818 10.6863 10.2237 10.9938L12 9.74369C11.9104 9.51379 11.8611 9.26282 11.8611 9C11.8611 7.89543 12.7317 7 13.8056 7C14.8794 7 15.75 7.89543 15.75 9Z" fill="#00A283"/>
</svg>
