<svg width="26" height="25" viewBox="0 0 26 25" fill="none" xmlns="http://www.w3.org/2000/svg">
<g filter="url(#filter0_d_2305_4602)">
<path d="M19 22H5C4.45 22 4 21.55 4 21V7L9 2H19C19.55 2 20 2.45 20 3V21C20 21.55 19.55 22 19 22Z" fill="#F2F5FC"/>
<path d="M4 7H8.38C8.73 7 9 6.72 9 6.38V2" fill="#8BA4E9"/>
<path d="M13.5 9H6.5C6.22 9 6 9.22 6 9.5C6 9.78 6.22 10 6.5 10H13.5C13.78 10 14 9.78 14 9.5C14 9.22 13.78 9 13.5 9Z" fill="#CFD4E0"/>
<path d="M6 13.5C6 13.78 6.22 14 6.5 14H12.5C12.78 14 13 13.78 13 13.5C13 13.22 12.78 13 12.5 13H6.5C6.22 13 6 13.22 6 13.5Z" fill="#CFD4E0"/>
<path d="M6 11.5C6 11.78 6.22 12 6.5 12H10.5C10.78 12 11 11.78 11 11.5C11 11.22 10.78 11 10.5 11H6.5C6.22 11 6 11.22 6 11.5Z" fill="#CFD4E0"/>
<path d="M6 15.5C6 15.78 6.22 16 6.5 16H10.5C10.78 16 11 15.78 11 15.5C11 15.22 10.78 15 10.5 15H6.5C6.22 15 6 15.22 6 15.5Z" fill="#CFD4E0"/>
<path d="M22.8995 10.5102L21.4895 9.1002C21.2895 8.9002 20.9795 8.9002 20.7795 9.1002L19.9395 9.9402L22.0595 12.0602L22.8995 11.2202C23.0995 11.0202 23.0995 10.7102 22.8995 10.5102Z" fill="#698AE2"/>
<path d="M19.9346 9.94042L14.7656 15.1094L16.8869 17.2307L22.0559 12.0617L19.9346 9.94042Z" fill="#00CBA4"/>
<path d="M14.0304 17.3406C13.9004 17.7306 14.2704 18.1006 14.6604 17.9706L15.6504 17.6406L14.3604 16.3506L14.0304 17.3406Z" fill="#698AE2"/>
<path d="M14.7713 15.1104L14.3613 16.3604L15.6413 17.6404L16.8913 17.2304L14.7713 15.1104Z" fill="#FADFCE"/>
</g>
<defs>
<filter id="filter0_d_2305_4602" x="2" y="0.5" width="23.0508" height="24" filterUnits="userSpaceOnUse" color-interpolation-filters="sRGB">
<feFlood flood-opacity="0" result="BackgroundImageFix"/>
<feColorMatrix in="SourceAlpha" type="matrix" values="0 0 0 0 0 0 0 0 0 0 0 0 0 0 0 0 0 0 127 0" result="hardAlpha"/>
<feOffset dy="0.5"/>
<feGaussianBlur stdDeviation="1"/>
<feComposite in2="hardAlpha" operator="out"/>
<feColorMatrix type="matrix" values="0 0 0 0 0 0 0 0 0 0 0 0 0 0 0 0 0 0 0.5 0"/>
<feBlend mode="normal" in2="BackgroundImageFix" result="effect1_dropShadow_2305_4602"/>
<feBlend mode="normal" in="SourceGraphic" in2="effect1_dropShadow_2305_4602" result="shape"/>
</filter>
</defs>
</svg>
