<svg width="49" height="48" viewBox="0 0 49 48" fill="none" xmlns="http://www.w3.org/2000/svg">
<circle cx="24.5" cy="24" r="24" fill="#F5F6FA"/>
<path d="M33.1325 22.3944V19.8681C33.1325 19.1981 32.8663 18.5555 32.3926 18.0817C31.9188 17.608 31.2762 17.3418 30.6062 17.3418H20.5009C19.8309 17.3418 19.1883 17.608 18.7146 18.0817C18.2408 18.5555 17.9746 19.1981 17.9746 19.8681V29.9734C17.9746 30.6434 18.2408 31.286 18.7146 31.7598C19.1883 32.2335 19.8309 32.4997 20.5009 32.4997H23.0272" stroke="#436DDB" stroke-width="1.5" stroke-linecap="round" stroke-linejoin="round"/>
<path d="M27.1316 26.6316L38.5 30.4211L33.4474 32.9474L30.9211 38L27.1316 26.6316ZM14.5 14V14.0126V14ZM19.5526 14V14.0126V14ZM24.6053 14V14.0126V14ZM29.6579 14V14.0126V14ZM14.5 19.0526V19.0653V19.0526ZM14.5 24.1053V24.1179V24.1053ZM14.5 29.1579V29.1705V29.1579Z" fill="#698AE2"/>
<path d="M14.5 14V14.0126M19.5526 14V14.0126M24.6053 14V14.0126M29.6579 14V14.0126M14.5 19.0526V19.0653M14.5 24.1053V24.1179M14.5 29.1579V29.1705M27.1316 26.6316L38.5 30.4211L33.4474 32.9474L30.9211 38L27.1316 26.6316Z" stroke="#698AE2" stroke-width="1.5" stroke-linecap="round" stroke-linejoin="round"/>
</svg>
