<svg width="24" height="24" viewBox="0 0 24 24" fill="none" xmlns="http://www.w3.org/2000/svg">
<g clip-path="url(#clip0_1813_20202)">
<path d="M12.0002 10C11.7489 10 11.5 10.0517 11.2679 10.1522C11.0357 10.2528 10.8247 10.4001 10.647 10.5858C10.4693 10.7715 10.3283 10.992 10.2321 11.2346C10.136 11.4773 10.0865 11.7374 10.0865 12C10.0865 12.2626 10.136 12.5227 10.2321 12.7654C10.3283 13.008 10.4693 13.2285 10.647 13.4142C10.8247 13.5999 11.0357 13.7472 11.2679 13.8478C11.5 13.9483 11.7489 14 12.0002 14C12.5078 13.9999 12.9945 13.7891 13.3533 13.4139C13.7121 13.0387 13.9137 12.53 13.9135 11.9995C13.9134 11.4691 13.7117 10.9605 13.3527 10.5855C12.9937 10.2105 12.5069 9.99988 11.9993 10H12.0002ZM5.91376 10C5.66244 10 5.41358 10.0517 5.18139 10.1522C4.94921 10.2528 4.73824 10.4001 4.56053 10.5858C4.38282 10.7715 4.24185 10.992 4.14568 11.2346C4.0495 11.4773 4 11.7374 4 12C4 12.2626 4.0495 12.5227 4.14568 12.7654C4.24185 13.008 4.38282 13.2285 4.56053 13.4142C4.73824 13.5999 4.94921 13.7472 5.18139 13.8478C5.41358 13.9483 5.66244 14 5.91376 14C6.42132 13.9999 6.90804 13.7891 7.26686 13.4139C7.62568 13.0387 7.82719 12.53 7.82708 11.9995C7.82696 11.4691 7.62523 10.9605 7.26625 10.5855C6.90726 10.2105 6.42045 9.99988 5.91289 10H5.91376ZM18.0867 10C17.8354 10 17.5865 10.0517 17.3543 10.1522C17.1221 10.2528 16.9112 10.4001 16.7334 10.5858C16.5557 10.7715 16.4148 10.992 16.3186 11.2346C16.2224 11.4773 16.1729 11.7374 16.1729 12C16.1729 12.2626 16.2224 12.5227 16.3186 12.7654C16.4148 13.008 16.5557 13.2285 16.7334 13.4142C16.9112 13.5999 17.1221 13.7472 17.3543 13.8478C17.5865 13.9483 17.8354 14 18.0867 14C18.5942 13.9999 19.081 13.7891 19.4398 13.4139C19.7986 13.0387 20.0001 12.53 20 11.9995C19.9999 11.4691 19.7981 10.9605 19.4392 10.5855C19.0802 10.2105 18.5934 9.99988 18.0858 10H18.0867Z" fill="#8A92A6"/>
</g>
<defs>
<clipPath id="clip0_1813_20202">
<rect width="24" height="24" fill="white"/>
</clipPath>
</defs>
</svg>
