<svg width="28" height="28" viewBox="0 0 28 28" fill="none" xmlns="http://www.w3.org/2000/svg">
<g clip-path="url(#clip0_1022_12420)">
<path d="M14 4.66634C17.8617 4.66634 21 7.80467 21 11.6663C21 11.923 20.9767 12.2147 20.93 12.5997C20.4517 16.7063 16.905 18.9697 14.5483 20.463C14.35 20.5913 14.175 20.708 14 20.813C13.825 20.6963 13.6383 20.5797 13.4517 20.463C11.095 18.9697 7.54834 16.7063 7.07 12.5647C7.02334 12.2147 7.00001 11.923 7.00001 11.6663C7.00001 7.80467 10.1383 4.66634 14 4.66634ZM14 2.33301C8.84334 2.33301 4.66667 6.50967 4.66667 11.6663C4.66667 12.0747 4.70167 12.4713 4.74834 12.868C5.43667 18.8647 11.06 21.6063 13.1833 23.0763C13.4283 23.2513 13.7083 23.333 14 23.333C14.2917 23.333 14.56 23.2513 14.8167 23.0763C16.94 21.5947 22.5633 18.853 23.2517 12.868C23.2983 12.4713 23.3333 12.0747 23.3333 11.6663C23.3333 6.50967 19.1567 2.33301 14 2.33301Z" fill="#D0D5DD"/>
<path d="M15.6567 9.33301C15.19 9.33301 14.7117 9.50801 14.35 9.84634L14 10.1847L13.6967 9.89301C13.3233 9.53134 12.81 9.33301 12.2967 9.33301C11.9933 9.33301 11.69 9.40301 11.41 9.56634C10.325 10.1847 10.2083 11.538 11.0367 12.3313L11.3867 12.6697L13.58 14.7697C13.6967 14.8747 13.8483 14.933 13.9883 14.933C14.1283 14.933 14.2917 14.8747 14.3967 14.7697L16.59 12.6697L16.94 12.3313C17.6633 11.643 17.6633 10.5347 16.94 9.84634C16.5783 9.50801 16.1117 9.33301 15.6333 9.33301H15.6567Z" fill="#B8C0CC"/>
<path d="M18.6667 23.3213H9.33334C8.69167 23.3213 8.16667 23.8463 8.16667 24.488C8.16667 25.1296 8.69167 25.6546 9.33334 25.6546H18.6667C19.3083 25.6546 19.8333 25.1296 19.8333 24.488C19.8333 23.8463 19.3083 23.3213 18.6667 23.3213Z" fill="#B8C0CC"/>
</g>
<defs>
<clipPath id="clip0_1022_12420">
<rect width="28" height="28" fill="white"/>
</clipPath>
</defs>
</svg>
