<svg width="28" height="28" viewBox="0 0 28 28" fill="none" xmlns="http://www.w3.org/2000/svg">
<g clip-path="url(#clip0_1022_12916)">
<path d="M5.26167 4.66699H21.5717C22.54 4.66699 23.3333 5.46033 23.3333 6.42866V7.00033H3.5V6.42866C3.5 5.46033 4.29333 4.66699 5.26167 4.66699Z" fill="#B8C0CC"/>
<path d="M14.5833 9.33398H7.58333C7.26117 9.33398 7 9.59515 7 9.91732C7 10.2395 7.26117 10.5007 7.58333 10.5007H14.5833C14.9055 10.5007 15.1667 10.2395 15.1667 9.91732C15.1667 9.59515 14.9055 9.33398 14.5833 9.33398Z" fill="#B8C0CC"/>
<path d="M11.1417 11.667H7.525C7.23505 11.667 7 11.902 7 12.192V12.3087C7 12.5986 7.23505 12.8337 7.525 12.8337H11.1417C11.4316 12.8337 11.6667 12.5986 11.6667 12.3087V12.192C11.6667 11.902 11.4316 11.667 11.1417 11.667Z" fill="#B8C0CC"/>
<path d="M12.25 14.001H7.58333C7.26117 14.001 7 14.2621 7 14.5843C7 14.9065 7.26117 15.1676 7.58333 15.1676H12.25C12.5722 15.1676 12.8333 14.9065 12.8333 14.5843C12.8333 14.2621 12.5722 14.001 12.25 14.001Z" fill="#B8C0CC"/>
<path d="M5.83333 18.6667V7H3.5V18.6667C3.5 19.95 4.55 21 5.83333 21H16.2633C15.6917 20.37 15.3183 19.565 15.2133 18.6667H5.83333Z" fill="#D0D5DD"/>
<path d="M23.3333 16.905V7H21V14.3617C21.4317 14.5483 21.8283 14.7817 22.1667 15.0967C22.7033 15.5867 23.1 16.205 23.3333 16.905Z" fill="#D0D5DD"/>
<path d="M25.3633 22.7033L22.9716 20.3116C23.345 19.6816 23.5666 18.9699 23.5666 18.1883C23.5666 17.7333 23.4733 17.3016 23.3333 16.8933C23.1 16.1933 22.7033 15.5633 22.1666 15.0849C21.8283 14.7816 21.4316 14.5366 21 14.3499C20.6383 14.1983 20.2416 14.0816 19.8333 14.0349C19.6816 14.0233 19.53 13.9883 19.3666 13.9883C17.045 13.9883 15.1666 15.8666 15.1666 18.1883C15.1666 18.3516 15.2016 18.5033 15.2133 18.6549C15.3183 19.5533 15.6916 20.3583 16.2633 20.9883C17.0333 21.8399 18.13 22.3883 19.3666 22.3883C20.1483 22.3883 20.86 22.1666 21.49 21.7933L23.8816 24.1849C24.0683 24.3716 24.3366 24.4883 24.6283 24.4883C25.2116 24.4883 25.6783 24.0216 25.6783 23.4383C25.6783 23.1466 25.5616 22.8899 25.375 22.6916L25.3633 22.7033ZM19.3666 20.2999C18.375 20.2999 17.535 19.5999 17.325 18.6666C17.29 18.5149 17.2666 18.3633 17.2666 18.1999C17.2666 17.0449 18.2116 16.0999 19.3666 16.0999C19.53 16.0999 19.6816 16.1233 19.8333 16.1583C20.7666 16.3683 21.4666 17.2083 21.4666 18.1999C21.4666 19.3549 20.5216 20.2999 19.3666 20.2999Z" fill="#B8C0CC"/>
</g>
<defs>
<clipPath id="clip0_1022_12916">
<rect width="28" height="28" fill="white"/>
</clipPath>
</defs>
</svg>
