<svg width="29" height="28" viewBox="0 0 29 28" fill="none" xmlns="http://www.w3.org/2000/svg">
<g clip-path="url(#clip0_1022_12972)">
<path d="M18.5833 16.333H22.6667V17.4997H18.5833C18.2567 17.4997 18 17.243 18 16.9163C18 16.5897 18.2567 16.333 18.5833 16.333Z" fill="#B8C0CC"/>
<path d="M20.9167 14H22.6667V15.1667H20.9167C20.59 15.1667 20.3334 14.91 20.3334 14.5833C20.3334 14.2567 20.59 14 20.9167 14Z" fill="#B8C0CC"/>
<path d="M15.0833 18.667H22.6667V19.8337H15.0833C14.7567 19.8337 14.5 19.577 14.5 19.2503C14.5 18.9237 14.7567 18.667 15.0833 18.667Z" fill="#B8C0CC"/>
<path d="M21.64 24.5H13.1934C11.3384 24.5 9.83337 22.995 9.83337 21.14V6.86C9.83337 5.005 11.3384 3.5 13.1934 3.5H21.64C23.495 3.5 25 5.005 25 6.86V21.14C25 22.995 23.495 24.5 21.64 24.5V24.5ZM13.1934 5.82167C12.6217 5.82167 12.155 6.28833 12.155 6.86V21.14C12.155 21.7117 12.6217 22.1783 13.1934 22.1783H21.64C22.2117 22.1783 22.6784 21.7117 22.6784 21.14V6.86C22.6784 6.28833 22.2117 5.82167 21.64 5.82167H13.1934Z" fill="#D0D5DD"/>
<path d="M13.3333 12.833H6.81168L8.31668 11.328C8.77168 10.873 8.77168 10.138 8.31668 9.68305C7.86168 9.22805 7.12668 9.22805 6.67168 9.68305L3.17168 13.183C3.06668 13.288 2.97335 13.4164 2.91501 13.568C2.79835 13.848 2.79835 14.1747 2.91501 14.4547C2.97335 14.5947 3.05501 14.723 3.17168 14.8397L6.67168 18.3397C6.90501 18.573 7.19668 18.678 7.50001 18.678C7.80335 18.678 8.09501 18.5614 8.32835 18.3397C8.78335 17.8847 8.78335 17.1497 8.32835 16.6947L6.82335 15.1897H13.345C13.9867 15.1897 14.5117 14.6647 14.5117 14.023C14.5117 13.3814 13.9867 12.8564 13.345 12.8564L13.3333 12.833Z" fill="#B8C0CC"/>
</g>
<defs>
<clipPath id="clip0_1022_12972">
<rect width="28" height="28" fill="white" transform="translate(0.5)"/>
</clipPath>
</defs>
</svg>
