<svg width="32" height="32" viewBox="0 0 32 32" fill="none" xmlns="http://www.w3.org/2000/svg">
<path d="M26.221 7.93431C26.8161 7.33923 26.8161 6.37441 26.221 5.77932C25.6259 5.18424 24.6611 5.18424 24.066 5.77932L16.0007 13.8447L7.93529 5.77932C7.34021 5.18424 6.37538 5.18424 5.7803 5.77932C5.18521 6.37441 5.18521 7.33923 5.7803 7.93431L13.8457 15.9997L5.7803 24.065C5.18521 24.6601 5.18521 25.6249 5.7803 26.22C6.37538 26.8151 7.3402 26.8151 7.93529 26.22L16.0007 18.1547L24.066 26.22C24.6611 26.8151 25.6259 26.8151 26.221 26.22C26.8161 25.6249 26.8161 24.6601 26.221 24.065L18.1556 15.9997L26.221 7.93431Z" fill="black"/>
</svg>
