<svg width="28" height="28" viewBox="0 0 28 28" fill="none" xmlns="http://www.w3.org/2000/svg">
<g clip-path="url(#clip0_1022_12942)">
<path d="M19.8334 8.16634V22.1663H8.16671V8.16634H19.8334ZM20.1367 5.83301H7.86337C6.74337 5.83301 5.83337 6.80134 5.83337 7.99134V22.3297C5.83337 23.5197 6.74337 24.488 7.86337 24.488H20.1367C21.2567 24.488 22.1667 23.5197 22.1667 22.3297V7.99134C22.1667 6.80134 21.2567 5.83301 20.1367 5.83301Z" fill="#D0D5DD"/>
<path d="M17.5001 24.5C17.5001 25.1417 18.0251 25.6667 18.6668 25.6667C19.3085 25.6667 19.8335 25.1417 19.8335 24.5H17.5001Z" fill="#B8C0CC"/>
<path d="M8.16675 24.5C8.16675 25.1417 8.69175 25.6667 9.33341 25.6667C9.97508 25.6667 10.5001 25.1417 10.5001 24.5H8.16675Z" fill="#B8C0CC"/>
<path d="M12.25 12.2493C12.25 11.9272 11.9889 11.666 11.6667 11.666C11.3445 11.666 11.0834 11.9272 11.0834 12.2493V18.0827C11.0834 18.4048 11.3445 18.666 11.6667 18.666C11.9889 18.666 12.25 18.4048 12.25 18.0827V12.2493Z" fill="#B8C0CC"/>
<path d="M14.5834 12.2493C14.5834 11.9272 14.3222 11.666 14.0001 11.666C13.6779 11.666 13.4167 11.9272 13.4167 12.2493V18.0827C13.4167 18.4048 13.6779 18.666 14.0001 18.666C14.3222 18.666 14.5834 18.4048 14.5834 18.0827V12.2493Z" fill="#B8C0CC"/>
<path d="M16.9167 12.2493C16.9167 11.9272 16.6555 11.666 16.3333 11.666C16.0112 11.666 15.75 11.9272 15.75 12.2493V18.0827C15.75 18.4048 16.0112 18.666 16.3333 18.666C16.6555 18.666 16.9167 18.4048 16.9167 18.0827V12.2493Z" fill="#B8C0CC"/>
<path d="M17.5001 5.83301H15.1668V4.66634H12.8335V5.83301H10.5001V3.49967C10.5001 2.85801 11.0251 2.33301 11.6668 2.33301H16.3335C16.9751 2.33301 17.5001 2.85801 17.5001 3.49967V5.83301Z" fill="#B8C0CC"/>
</g>
<defs>
<clipPath id="clip0_1022_12942">
<rect width="28" height="28" fill="white"/>
</clipPath>
</defs>
</svg>
