<svg width="122" height="32" viewBox="0 0 122 32" fill="none" xmlns="http://www.w3.org/2000/svg">
<rect width="32.0508" height="32" fill="white"/>
<path d="M16.0254 30.546C19.166 30.546 21.7119 30.0838 21.7119 29.5137C21.7119 28.9436 19.166 28.4814 16.0254 28.4814C12.8849 28.4814 10.339 28.9436 10.339 29.5137C10.339 30.0838 12.8849 30.546 16.0254 30.546Z" fill="#E7EAEE"/>
<path d="M16.0268 1.03223C9.74566 1.03223 4.65259 6.25402 4.65259 12.6939C4.65259 17.8998 12.0882 25.8093 14.9343 29.143C15.5128 29.8209 16.5381 29.8209 17.1167 29.143C19.9654 25.8093 27.3984 17.9024 27.3984 12.6939C27.3984 6.25402 22.3053 1.03223 16.0242 1.03223H16.0268Z" fill="#3C6AE2"/>
<path d="M20.4565 10.5594V8.93355C20.4565 8.60785 20.2178 8.3457 19.9261 8.3457H12.2719C11.9802 8.3457 11.7415 8.60785 11.7415 8.93355V10.7156C11.7415 11.0413 11.9802 11.3035 12.2719 11.3035H16.0009L11.7256 16.3214C11.6328 16.4299 11.5797 16.5756 11.5797 16.7239V18.3497C11.5797 18.6754 11.8184 18.9376 12.1101 18.9376H13.4787L16.8125 15.053L20.3107 10.9645C20.4035 10.856 20.4565 10.7103 20.4565 10.5594V10.5594Z" fill="white"/>
<path d="M13.4813 18.9382H19.9261C20.2178 18.9382 20.4565 18.6761 20.4565 18.3504V16.5683C20.4565 16.2426 20.2178 15.9805 19.9261 15.9805H16.0195" fill="url(#paint0_linear_957_13437)"/>
<rect width="89.9492" height="32" transform="translate(32.0509)" fill="white"/>
<path d="M33.0928 21.1948V12.144C33.0928 11.9216 33.2334 11.7812 33.4561 11.7812H36.3656C36.5884 11.7812 36.7289 11.9216 36.7289 12.144V19.7146C36.7289 22.1163 37.5962 23.2337 39.4978 23.2337C41.2615 23.2337 42.9377 21.9203 42.9377 19.1558V12.144C42.9377 11.9216 43.0782 11.7812 43.301 11.7812H46.2105C46.4332 11.7812 46.5738 11.9216 46.5738 12.144V25.887C46.5738 26.1094 46.4332 26.2497 46.2105 26.2497H43.5795C43.3567 26.2497 43.187 26.1385 43.187 25.887L43.1021 24.2399C42.0386 25.7758 40.2192 26.5304 38.3733 26.5304C35.0156 26.5304 33.0848 24.5206 33.0848 21.1948H33.0928Z" fill="#3C6AE2"/>
<path d="M50.0535 25.903V12.1601C50.0535 11.9376 50.194 11.7973 50.4168 11.7973H53.0478C53.2706 11.7973 53.4403 11.9085 53.4403 12.1601L53.5252 13.8071C54.5887 12.2713 56.4081 11.5166 58.254 11.5166C61.6116 11.5166 63.5424 13.5264 63.5424 16.8523V25.903C63.5424 26.1254 63.4019 26.2658 63.1791 26.2658H60.2696C60.0469 26.2658 59.9063 26.1254 59.9063 25.903V18.3325C59.9063 15.9308 59.039 14.8133 57.1374 14.8133C55.3737 14.8133 53.6976 16.1267 53.6976 18.8912V25.903C53.6976 26.1254 53.557 26.2658 53.3342 26.2658H50.4248C50.202 26.2658 50.0614 26.1254 50.0614 25.903H50.0535Z" fill="#3C6AE2"/>
<path d="M66.16 25.887V25.0211C66.16 24.8543 66.2157 24.7139 66.3006 24.5736L72.6791 14.9932H66.8045C66.5817 14.9932 66.4412 14.8529 66.4412 14.6305V12.144C66.4412 11.9216 66.5817 11.7812 66.8045 11.7812H77.7713C77.994 11.7812 78.1346 11.9216 78.1346 12.144V12.9834C78.1346 13.1502 78.0789 13.2906 77.994 13.4309L71.6447 23.0404H77.8826C78.1054 23.0404 78.246 23.1807 78.246 23.4032V25.8896C78.246 26.112 78.1054 26.2524 77.8826 26.2524H66.5234C66.3006 26.2524 66.16 26.112 66.16 25.8896V25.887Z" fill="#3C6AE2"/>
<path d="M81.0123 7.17359C81.0123 5.97141 81.9353 5.16113 83.1394 5.16113C84.3435 5.16113 85.2664 5.97141 85.2664 7.17359C85.2664 8.37576 84.3435 9.18339 83.1394 9.18339C81.9353 9.18339 81.0123 8.37312 81.0123 7.17359ZM81.32 25.8603V12.1173C81.32 11.8949 81.4605 11.7546 81.6833 11.7546H84.5928C84.8155 11.7546 84.9561 11.8949 84.9561 12.1173V25.8603C84.9561 26.0827 84.8155 26.2231 84.5928 26.2231H81.6833C81.4605 26.2231 81.32 26.0827 81.32 25.8603V25.8603Z" fill="#3C6AE2"/>
<path d="M87.9133 18.875C87.9133 14.4343 90.5442 11.36 94.6843 11.36C96.5859 11.36 98.1825 12.1147 99.2433 13.399V5.5239C99.2433 5.30148 99.3839 5.16113 99.6067 5.16113H102.516C102.739 5.16113 102.879 5.30148 102.879 5.5239V25.7464C102.879 25.9689 102.739 26.1092 102.516 26.1092H99.8852C99.6624 26.1092 99.4927 25.998 99.4927 25.7464L99.4078 24.1259C98.3734 25.5505 96.6946 26.3872 94.679 26.3872C90.5389 26.3872 87.908 23.3156 87.908 18.8723L87.9133 18.875ZM99.4953 18.875C99.4953 16.3885 97.9014 14.6567 95.578 14.6567C93.2547 14.6567 91.6608 16.3885 91.6608 18.875C91.6608 21.3614 93.2547 23.0932 95.578 23.0932C97.9014 23.0932 99.4953 21.3614 99.4953 18.875V18.875Z" fill="#3C6AE2"/>
<path d="M105.412 19.0315C105.412 14.6465 108.433 11.5166 113.077 11.5166C117.721 11.5166 120.742 14.6438 120.742 19.0315C120.742 23.4192 117.721 26.5465 113.077 26.5465C108.433 26.5465 105.412 23.4192 105.412 19.0315ZM116.994 19.0315C116.994 16.5451 115.4 14.8133 113.077 14.8133C110.754 14.8133 109.16 16.5451 109.16 19.0315C109.16 21.518 110.754 23.2497 113.077 23.2497C115.4 23.2497 116.994 21.518 116.994 19.0315V19.0315Z" fill="#3C6AE2"/>
<defs>
<linearGradient id="paint0_linear_957_13437" x1="15.8656" y1="14.6512" x2="17.6535" y2="19.6021" gradientUnits="userSpaceOnUse">
<stop stop-color="#377AF4" stop-opacity="0.02"/>
<stop offset="0.05" stop-color="#5B92F6" stop-opacity="0.2"/>
<stop offset="0.1" stop-color="#7DA8F7" stop-opacity="0.36"/>
<stop offset="0.15" stop-color="#9CBDF9" stop-opacity="0.52"/>
<stop offset="0.21" stop-color="#B7CFFB" stop-opacity="0.65"/>
<stop offset="0.28" stop-color="#CDDEFC" stop-opacity="0.76"/>
<stop offset="0.35" stop-color="#DFEAFD" stop-opacity="0.85"/>
<stop offset="0.44" stop-color="#EDF3FE" stop-opacity="0.92"/>
<stop offset="0.54" stop-color="#F7FAFE" stop-opacity="0.96"/>
<stop offset="0.68" stop-color="#FDFDFE" stop-opacity="0.99"/>
<stop offset="1" stop-color="white"/>
</linearGradient>
</defs>
</svg>
