<svg width="28" height="28" viewBox="0 0 28 28" fill="none" xmlns="http://www.w3.org/2000/svg">
<path fill-rule="evenodd" clip-rule="evenodd" d="M14.0007 25.6663C20.444 25.6663 25.6673 20.443 25.6673 13.9997C25.6673 7.55635 20.444 2.33301 14.0007 2.33301C7.55733 2.33301 2.33398 7.55635 2.33398 13.9997C2.33398 20.443 7.55733 25.6663 14.0007 25.6663ZM15.0007 9.33301C15.0007 8.78072 14.5529 8.33301 14.0007 8.33301C13.4484 8.33301 13.0007 8.78072 13.0007 9.33301L13.0007 12.9997H9.33398C8.7817 12.9997 8.33398 13.4474 8.33398 13.9997C8.33398 14.552 8.7817 14.9997 9.33398 14.9997H13.0007V18.6663C13.0007 19.2186 13.4484 19.6663 14.0007 19.6663C14.5529 19.6663 15.0007 19.2186 15.0007 18.6663V14.9997H18.6673C19.2196 14.9997 19.6673 14.552 19.6673 13.9997C19.6673 13.4474 19.2196 12.9997 18.6673 12.9997H15.0007V9.33301Z" fill="#436DDB"/>
</svg>
