<svg width="24" height="24" viewBox="0 0 24 24" fill="none" xmlns="http://www.w3.org/2000/svg">
<path d="M12 0C18.6274 0 24 5.37258 24 12C24 18.6274 18.6274 24 12 24C5.37258 24 0 18.6274 0 12C0 5.37258 5.37258 0 12 0Z" fill="#F5F6FA"/>
<path fill-rule="evenodd" clip-rule="evenodd" d="M10.2929 7.29289C9.90237 7.68342 9.90237 8.31658 10.2929 8.70711L13.5858 12L10.2929 15.2929C9.90237 15.6834 9.90237 16.3166 10.2929 16.7071C10.6834 17.0976 11.3166 17.0976 11.7071 16.7071L15.7071 12.7071C16.0976 12.3166 16.0976 11.6834 15.7071 11.2929L11.7071 7.29289C11.3166 6.90237 10.6834 6.90237 10.2929 7.29289Z" fill="#8A92A6"/>
</svg>
