<svg width="20" height="20" viewBox="0 0 20 20" fill="none" xmlns="http://www.w3.org/2000/svg">
<path d="M16.3864 4.95907C16.7583 4.58714 16.7583 3.98413 16.3864 3.6122C16.0145 3.24027 15.4115 3.24027 15.0395 3.6122L9.9987 8.65305L4.95785 3.6122C4.58592 3.24027 3.98291 3.24027 3.61098 3.6122C3.23905 3.98413 3.23905 4.58714 3.61098 4.95907L8.65183 9.99992L3.61098 15.0408C3.23905 15.4127 3.23905 16.0157 3.61098 16.3876C3.98291 16.7596 4.58592 16.7596 4.95785 16.3876L9.9987 11.3468L15.0395 16.3876C15.4115 16.7596 16.0145 16.7596 16.3864 16.3876C16.7583 16.0157 16.7583 15.4127 16.3864 15.0408L11.3456 9.99992L16.3864 4.95907Z" fill="white"/>
</svg>
