<svg width="32" height="32" viewBox="0 0 32 32" fill="none" xmlns="http://www.w3.org/2000/svg">
<g clip-path="url(#clip0_1813_20135)">
<circle cx="16" cy="16" r="15.5" fill="#F5F6FA" stroke="#F5F6FA"/>
<path d="M22.5 11.5003C22.5 13.3413 21.0076 14.8337 19.1667 14.8337C18.3673 14.8337 17.6337 14.5523 17.0594 14.0832L13.9683 16.1982C14.0967 16.5526 14.1667 16.935 14.1667 17.3337C14.1667 17.5486 14.1463 17.7587 14.1075 17.9623L16.7438 19.2111C17.3514 18.5682 18.2122 18.167 19.1667 18.167C21.0076 18.167 22.5 19.6594 22.5 21.5003C22.5 23.3413 21.0076 24.8337 19.1667 24.8337C17.3257 24.8337 15.8333 23.3413 15.8333 21.5003C15.8333 21.2147 15.8692 20.9375 15.9368 20.673L13.3936 19.4683C12.7821 20.2009 11.8622 20.667 10.8333 20.667C8.99238 20.667 7.5 19.1746 7.5 17.3337C7.5 15.4927 8.99238 14.0003 10.8333 14.0003C11.673 14.0003 12.4402 14.3108 13.0263 14.8233L16.0714 12.7398C15.9178 12.3566 15.8333 11.9384 15.8333 11.5003C15.8333 9.65938 17.3257 8.16699 19.1667 8.16699C21.0076 8.16699 22.5 9.65938 22.5 11.5003Z" fill="#8A92A6"/>
</g>
<defs>
<clipPath id="clip0_1813_20135">
<rect width="32" height="32" fill="white"/>
</clipPath>
</defs>
</svg>
