<svg width="24" height="24" viewBox="0 0 24 24" fill="none" xmlns="http://www.w3.org/2000/svg">
<path fill-rule="evenodd" clip-rule="evenodd" d="M10 2C8.89543 2 8 2.89543 8 4V6H3C2.44772 6 2 6.44772 2 7C2 7.55228 2.44772 8 3 8H4.22193L5.2129 20.0161C5.29603 21.1344 6.22773 22 7.34985 22H16.6502C17.7723 22 18.704 21.1344 18.7871 20.0161L19.7781 8H21C21.5523 8 22 7.55228 22 7C22 6.44772 21.5523 6 21 6H16V4C16 2.89543 15.1046 2 14 2H10ZM14 6V4H10V6H14ZM10 10C10.5523 10 11 10.4477 11 11V17C11 17.5523 10.5523 18 10 18C9.44772 18 9 17.5523 9 17V11C9 10.4477 9.44772 10 10 10ZM14 10C14.5523 10 15 10.4477 15 11V17C15 17.5523 14.5523 18 14 18C13.4477 18 13 17.5523 13 17V11C13 10.4477 13.4477 10 14 10Z" fill="#B8C0CC"/>
</svg>
