<svg width="24" height="24" viewBox="0 0 24 24" fill="none" xmlns="http://www.w3.org/2000/svg">
<path fill-rule="evenodd" clip-rule="evenodd" d="M9.91226 5.34555C9.55459 5.34555 9.23313 5.56379 9.10113 5.89621L8.66616 6.9917C8.40218 7.65655 7.75925 8.09303 7.04391 8.09303H5.01821C4.53621 8.09303 4.14548 8.48376 4.14548 8.96576V17.5637C4.14548 18.0457 4.53621 18.4365 5.01821 18.4365H18.9818C19.4638 18.4365 19.8546 18.0457 19.8546 17.5637V8.96575C19.8546 8.48376 19.4638 8.09303 18.9818 8.09303H16.9561C16.2408 8.09303 15.5979 7.65655 15.3339 6.9917L14.8989 5.89621C14.7669 5.56379 14.4455 5.34555 14.0878 5.34555H9.91226ZM7.47888 5.25208C7.87486 4.25481 8.83925 3.6001 9.91226 3.6001H14.0878C15.1608 3.6001 16.1252 4.25481 16.5212 5.25208L16.9561 6.34757L18.9818 6.34757C20.4278 6.34757 21.6 7.51977 21.6 8.96575V17.5637C21.6 19.0097 20.4278 20.1819 18.9818 20.1819H5.01821C3.57223 20.1819 2.40002 19.0097 2.40002 17.5637V8.96576C2.40002 7.51977 3.57222 6.34757 5.01821 6.34757H7.04391L7.47888 5.25208ZM12 9.70919C10.554 9.70919 9.38184 10.8814 9.38184 12.3274C9.38184 13.7734 10.554 14.9456 12 14.9456C13.446 14.9456 14.6182 13.7734 14.6182 12.3274C14.6182 10.8814 13.446 9.70919 12 9.70919ZM7.63639 12.3274C7.63639 9.9174 9.59005 7.96373 12 7.96373C14.41 7.96373 16.3637 9.9174 16.3637 12.3274C16.3637 14.7373 14.41 16.691 12 16.691C9.59005 16.691 7.63639 14.7373 7.63639 12.3274ZM18.1091 10.5819C18.5911 10.5819 18.9818 10.1912 18.9818 9.70919C18.9818 9.22719 18.5911 8.83646 18.1091 8.83646C17.6271 8.83646 17.2364 9.22719 17.2364 9.70919C17.2364 10.1912 17.6271 10.5819 18.1091 10.5819Z" fill="#0D0F11"/>
</svg>
