<svg width="24" height="20" viewBox="0 0 24 20" fill="none" xmlns="http://www.w3.org/2000/svg">
<path fill-rule="evenodd" clip-rule="evenodd" d="M9.91214 4.45455C9.55447 4.45455 9.233 4.63641 9.10101 4.91343L8.66604 5.82634C8.40205 6.38038 7.75912 6.74411 7.04378 6.74411H5.01808C4.53609 6.74411 4.14536 7.06972 4.14536 7.47138V14.6364C4.14536 15.038 4.53609 15.3636 5.01808 15.3636H18.9817C19.4637 15.3636 19.8544 15.038 19.8544 14.6364V7.47138C19.8544 7.06972 19.4637 6.74411 18.9817 6.74411H16.956C16.2407 6.74411 15.5978 6.38038 15.3338 5.82634L14.8988 4.91343C14.7668 4.63641 14.4453 4.45455 14.0877 4.45455H9.91214ZM7.47876 4.37666C7.87473 3.54559 8.83913 3 9.91214 3H14.0877C15.1607 3 16.1251 3.54559 16.521 4.37666L16.956 5.28956L18.9817 5.28956C20.4277 5.28956 21.5999 6.2664 21.5999 7.47138V14.6364C21.5999 15.8413 20.4277 16.8182 18.9817 16.8182H5.01808C3.5721 16.8182 2.3999 15.8413 2.3999 14.6364V7.47138C2.3999 6.2664 3.5721 5.28956 5.01808 5.28956H7.04378L7.47876 4.37666ZM11.9999 8.09091C10.5539 8.09091 9.38172 9.06774 9.38172 10.2727C9.38172 11.4777 10.5539 12.4545 11.9999 12.4545C13.4459 12.4545 14.6181 11.4777 14.6181 10.2727C14.6181 9.06774 13.4459 8.09091 11.9999 8.09091ZM7.63627 10.2727C7.63627 8.26442 9.58993 6.63636 11.9999 6.63636C14.4099 6.63636 16.3635 8.26442 16.3635 10.2727C16.3635 12.281 14.4099 13.9091 11.9999 13.9091C9.58993 13.9091 7.63627 12.281 7.63627 10.2727ZM18.109 8.81818C18.591 8.81818 18.9817 8.49257 18.9817 8.09091C18.9817 7.68925 18.591 7.36364 18.109 7.36364C17.627 7.36364 17.2363 7.68925 17.2363 8.09091C17.2363 8.49257 17.627 8.81818 18.109 8.81818Z" fill="#0D0F11"/>
</svg>
