<svg width="36" height="36" viewBox="0 0 36 36" fill="none" xmlns="http://www.w3.org/2000/svg">
<g filter="url(#filter0_d_654_34452)">
<circle cx="18" cy="16" r="10" fill="white"/>
</g>
<path fill-rule="evenodd" clip-rule="evenodd" d="M16.6951 12.0909C16.4716 12.0909 16.2707 12.2273 16.1882 12.4351L15.9163 13.1198C15.7513 13.5353 15.3495 13.8081 14.9024 13.8081H13.6364C13.3351 13.8081 13.0909 14.0523 13.0909 14.3535V19.7273C13.0909 20.0285 13.3351 20.2727 13.6364 20.2727H22.3636C22.6649 20.2727 22.9091 20.0285 22.9091 19.7273V14.3535C22.9091 14.0523 22.6649 13.8081 22.3636 13.8081H21.0976C20.6505 13.8081 20.2487 13.5353 20.0837 13.1198L19.8118 12.4351C19.7293 12.2273 19.5284 12.0909 19.3049 12.0909H16.6951ZM15.1743 12.0325C15.4218 11.4092 16.0245 11 16.6951 11H19.3049C19.9755 11 20.5782 11.4092 20.8257 12.0325L21.0976 12.7172L22.3636 12.7172C23.2674 12.7172 24 13.4498 24 14.3535V19.7273C24 20.631 23.2674 21.3636 22.3636 21.3636H13.6364C12.7326 21.3636 12 20.631 12 19.7273V14.3535C12 13.4498 12.7326 12.7172 13.6364 12.7172H14.9024L15.1743 12.0325ZM18 14.8182C17.0963 14.8182 16.3636 15.5508 16.3636 16.4545C16.3636 17.3583 17.0963 18.0909 18 18.0909C18.9037 18.0909 19.6364 17.3583 19.6364 16.4545C19.6364 15.5508 18.9037 14.8182 18 14.8182ZM15.2727 16.4545C15.2727 14.9483 16.4938 13.7273 18 13.7273C19.5062 13.7273 20.7273 14.9483 20.7273 16.4545C20.7273 17.9608 19.5062 19.1818 18 19.1818C16.4938 19.1818 15.2727 17.9608 15.2727 16.4545ZM21.8182 15.3636C22.1194 15.3636 22.3636 15.1194 22.3636 14.8182C22.3636 14.5169 22.1194 14.2727 21.8182 14.2727C21.5169 14.2727 21.2727 14.5169 21.2727 14.8182C21.2727 15.1194 21.5169 15.3636 21.8182 15.3636Z" fill="#4B5768"/>
<defs>
<filter id="filter0_d_654_34452" x="0" y="0" width="36" height="36" filterUnits="userSpaceOnUse" color-interpolation-filters="sRGB">
<feFlood flood-opacity="0" result="BackgroundImageFix"/>
<feColorMatrix in="SourceAlpha" type="matrix" values="0 0 0 0 0 0 0 0 0 0 0 0 0 0 0 0 0 0 127 0" result="hardAlpha"/>
<feOffset dy="2"/>
<feGaussianBlur stdDeviation="4"/>
<feComposite in2="hardAlpha" operator="out"/>
<feColorMatrix type="matrix" values="0 0 0 0 0 0 0 0 0 0 0 0 0 0 0 0 0 0 0.12 0"/>
<feBlend mode="normal" in2="BackgroundImageFix" result="effect1_dropShadow_654_34452"/>
<feBlend mode="normal" in="SourceGraphic" in2="effect1_dropShadow_654_34452" result="shape"/>
</filter>
</defs>
</svg>
