<svg width="24" height="24" viewBox="0 0 24 24" fill="none" xmlns="http://www.w3.org/2000/svg">
<g clip-path="url(#clip0_332_2734)">
<path d="M12.0001 9.56149C13.3268 9.56149 14.4001 10.6521 14.4001 12.0002C14.4001 13.3483 13.3268 14.4389 12.0001 14.4389C10.6734 14.4389 9.6001 13.3483 9.6001 12.0002C9.6001 10.6521 10.6734 9.56149 12.0001 9.56149ZM9.6001 3.63891C9.6001 4.98697 10.6734 6.07761 12.0001 6.07761C13.3268 6.07761 14.4001 4.98697 14.4001 3.63891C14.4001 2.29084 13.3268 1.2002 12.0001 1.2002C10.6734 1.2002 9.6001 2.29084 9.6001 3.63891ZM9.6001 20.3615C9.6001 21.7096 10.6734 22.8002 12.0001 22.8002C13.3268 22.8002 14.4001 21.7096 14.4001 20.3615C14.4001 19.0134 13.3268 17.9228 12.0001 17.9228C10.6734 17.9228 9.6001 19.0134 9.6001 20.3615Z" fill="black"/>
</g>
<defs>
<clipPath id="clip0_332_2734">
<rect width="24" height="24" fill="white"/>
</clipPath>
</defs>
</svg>
