<svg width="36" height="37" viewBox="0 0 36 37" fill="none" xmlns="http://www.w3.org/2000/svg">
<path d="M18 16.4599C19.1056 16.4599 20 17.3688 20 18.4922C20 19.6156 19.1056 20.5244 18 20.5244C16.8944 20.5244 16 19.6156 16 18.4922C16 17.3688 16.8944 16.4599 18 16.4599ZM16 11.5244C16 12.6478 16.8944 13.5567 18 13.5567C19.1056 13.5567 20 12.6478 20 11.5244C20 10.4011 19.1056 9.49219 18 9.49219C16.8944 9.49219 16 10.4011 16 11.5244ZM16 25.4599C16 26.5833 16.8944 27.4922 18 27.4922C19.1056 27.4922 20 26.5833 20 25.4599C20 24.3365 19.1056 23.4277 18 23.4277C16.8944 23.4277 16 24.3365 16 25.4599Z" fill="#8A92A6"/>
</svg>
