<svg width="24" height="24" viewBox="0 0 24 24" fill="none" xmlns="http://www.w3.org/2000/svg">
<path fill-rule="evenodd" clip-rule="evenodd" d="M12 2C14.3869 2 16.6761 2.94039 18.364 4.6143C20.0518 6.2882 21 8.55851 21 10.9258C21 13.9744 19.324 16.4697 17.558 18.2598C16.6755 19.1443 15.7128 19.9464 14.682 20.6558L14.256 20.9435L14.056 21.0754L13.679 21.3134L13.343 21.5167L12.927 21.7567C12.6445 21.9162 12.325 22 12 22C11.675 22 11.3555 21.9162 11.073 21.7567L10.657 21.5167L10.137 21.1993L9.945 21.0754L9.535 20.8046C8.42298 20.0581 7.38707 19.2058 6.442 18.2598C4.676 16.4677 3 13.9744 3 10.9258C3 8.55851 3.94821 6.2882 5.63604 4.6143C7.32387 2.94039 9.61305 2 12 2ZM12 3.9835C10.1435 3.9835 8.36301 4.71492 7.05025 6.01685C5.7375 7.31877 5 9.08456 5 10.9258C5 13.2286 6.272 15.2498 7.871 16.8723C8.55862 17.5625 9.30174 18.196 10.093 18.7666L10.551 19.0899C10.699 19.192 10.841 19.2872 10.978 19.3755L11.368 19.6234L11.711 19.8307L12 19.9983L12.455 19.7315L12.822 19.5034C13.017 19.3805 13.227 19.2426 13.449 19.0899L13.907 18.7666C14.6983 18.196 15.4414 17.5625 16.129 16.8723C17.728 15.2508 19 13.2286 19 10.9258C19 9.08456 18.2625 7.31877 16.9497 6.01685C15.637 4.71492 13.8565 3.9835 12 3.9835Z" fill="black"/>
<path fill-rule="evenodd" clip-rule="evenodd" d="M12 7C13.0609 7 14.0783 7.41795 14.8284 8.16191C15.5786 8.90587 16 9.91489 16 10.967C16 12.0191 15.5786 13.0281 14.8284 13.7721C14.0783 14.5161 13.0609 14.934 12 14.934C10.9391 14.934 9.92172 14.5161 9.17157 13.7721C8.42143 13.0281 8 12.0191 8 10.967C8 9.91489 8.42143 8.90587 9.17157 8.16191C9.92172 7.41795 10.9391 7 12 7ZM12 8.9835C11.4696 8.9835 10.9609 9.19248 10.5858 9.56446C10.2107 9.93644 10 10.4409 10 10.967C10 11.4931 10.2107 11.9976 10.5858 12.3696C10.9609 12.7415 11.4696 12.9505 12 12.9505C12.5304 12.9505 13.0391 12.7415 13.4142 12.3696C13.7893 11.9976 14 11.4931 14 10.967C14 10.4409 13.7893 9.93644 13.4142 9.56446C13.0391 9.19248 12.5304 8.9835 12 8.9835Z" fill="black"/>
</svg>
