<svg width="36" height="36" viewBox="0 0 36 36" fill="none" xmlns="http://www.w3.org/2000/svg">
<rect width="36" height="36" rx="4" fill="white"/>
<g filter="url(#filter0_d_1187_23439)">
<path d="M24.3884 12.9588C24.7603 12.5869 24.7603 11.9839 24.3884 11.612C24.0164 11.24 23.4134 11.24 23.0415 11.612L18.0007 16.6528L12.9598 11.612C12.5879 11.24 11.9849 11.24 11.6129 11.612C11.241 11.9839 11.241 12.5869 11.6129 12.9588L16.6538 17.9997L11.6129 23.0405C11.241 23.4125 11.241 24.0155 11.6129 24.3874C11.9849 24.7593 12.5879 24.7593 12.9598 24.3874L18.0007 19.3465L23.0415 24.3874C23.4134 24.7593 24.0164 24.7593 24.3884 24.3874C24.7603 24.0155 24.7603 23.4125 24.3884 23.0405L19.3475 17.9997L24.3884 12.9588Z" fill="black"/>
</g>
<defs>
<filter id="filter0_d_1187_23439" x="4" y="4" width="28" height="28" filterUnits="userSpaceOnUse" color-interpolation-filters="sRGB">
<feFlood flood-opacity="0" result="BackgroundImageFix"/>
<feColorMatrix in="SourceAlpha" type="matrix" values="0 0 0 0 0 0 0 0 0 0 0 0 0 0 0 0 0 0 127 0" result="hardAlpha"/>
<feOffset/>
<feGaussianBlur stdDeviation="2"/>
<feComposite in2="hardAlpha" operator="out"/>
<feColorMatrix type="matrix" values="0 0 0 0 0 0 0 0 0 0 0 0 0 0 0 0 0 0 0.25 0"/>
<feBlend mode="normal" in2="BackgroundImageFix" result="effect1_dropShadow_1187_23439"/>
<feBlend mode="normal" in="SourceGraphic" in2="effect1_dropShadow_1187_23439" result="shape"/>
</filter>
</defs>
</svg>
